<?xml version="1.0" encoding="UTF-8" standalone="yes"?>
<svg version="1.1" id="Layer_1" xmlns="http://www.w3.org/2000/svg" xmlns:xlink="http://www.w3.org/1999/xlink" x="0px" y="0px" viewBox="0 0 315 315.002" style="enable-background:new 0 0 315 315.002;" xml:space="preserve">
      <style type="text/css">.st0{fill:#033275;}	.st1{fill:#FF57FB;}	.st2{fill:#28D8EA;}	.st3{fill:#FFFFFF;}</style>
    <g>
              <path class="st0" d="M315,157.501c0,86.985-70.516,157.501-157.501,157.501S0,244.486,0,157.501S70.514,0,157.499,0&#x9;&#x9;S315,70.516,315,157.501"/>
          </g>
    <g id="color_index_1" fill="#ff57fb">
              <path d="M220.877,182.665c-1.606-1.184-3.679-1.488-5.681-0.867l-73.331,23.097v-0.134&#x9;&#x9;c0.002-1.925-1.068-3.77-2.843-4.516c-3.15-1.324-6.527,0.993-6.527,4.309v5.513c0,3.768,3.66,6.452,7.253,5.319l74.241-23.387&#x9;&#x9;v25.404l-111.782,35.194v-67.649c0-2.916-2.395-5.265-5.284-4.877c-2.382,0.317-4.086,2.33-4.086,4.646v72.19&#x9;&#x9;c0,2.038,0.915,3.877,2.495,5.037c1.066,0.773,2.331,1.182,3.643,1.182c0.679,0,1.359-0.105,2.036-0.327l116.994-36.835&#x9;&#x9;c3.102-0.974,5.352-4.006,5.352-7.204v-31.059C223.36,185.662,222.458,183.825,220.877,182.665"/>
        <path d="M220.877,50.727c-1.606-1.182-3.679-1.498-5.681-0.865L98.204,86.707c-3.104,0.972-5.365,4.006-5.365,7.204&#x9;&#x9;v69.152c0,3.166,3.079,5.421,6.098,4.466c1.947-0.617,3.271-2.424,3.271-4.466V95.257L213.99,60.061v25.404l-76.14,23.975&#x9;&#x9;c-3.106,0.985-5.354,4.006-5.354,7.204v2.618c0,3.166,3.074,5.421,6.092,4.468c1.952-0.613,3.279-2.422,3.279-4.468v-1.26&#x9;&#x9;l76.14-23.975c3.102-0.972,5.352-4.006,5.352-7.202V55.764C223.36,53.726,222.458,51.887,220.877,50.727"/>
        <path d="M220.877,116.695c-1.606-1.182-3.679-1.498-5.681-0.865l-60.179,18.952l-13.152,4.143v-0.132&#x9;&#x9;c0-1.926-1.068-3.77-2.843-4.516c-3.15-1.326-6.527,0.991-6.527,4.309v5.512c0,3.768,3.66,6.452,7.253,5.32l74.241-23.388v25.404&#x9;&#x9;l-76.14,23.975c-3.106,0.983-5.354,4.006-5.354,7.204v2.618c0,3.166,3.074,5.419,6.092,4.468c1.952-0.613,3.278-2.422,3.278-4.468&#x9;&#x9;v-1.26l76.142-23.975c0.776-0.244,1.499-0.615,2.146-1.085c1.941-1.413,3.206-3.719,3.206-6.117v-31.061&#x9;&#x9;C223.36,119.694,222.458,117.855,220.877,116.695"/>
          </g>
    <g id="color_index_0" fill="#28d8ea">
              <path d="M30.8,153.228C33.02,86.23,87.874,32.114,154.896,30.761c10.214-0.206,20.157,0.803,29.703,2.892&#x9;&#x9;c2.937,0.642,5.72-1.557,5.72-4.564c0-2.21-1.546-4.113-3.705-4.587c-8.692-1.907-17.685-2.972-26.907-3.12&#x9;&#x9;C85.713,20.204,24.744,77.466,21.495,151.402C19.649,193.416,36.964,231.53,65.43,257.7c3.021,2.777,7.895,0.676,7.895-3.427&#x9;&#x9;c0-1.321-0.564-2.57-1.536-3.463C45.592,226.741,29.524,191.804,30.8,153.228"/>
        <path d="M284.197,161.774c-2.218,66.999-57.072,121.115-124.095,122.466c-10.214,0.207-20.157-0.802-29.705-2.891&#x9;&#x9;c-2.935-0.642-5.719,1.557-5.719,4.562c0,2.21,1.544,4.114,3.705,4.589c8.691,1.906,17.684,2.972,26.905,3.118&#x9;&#x9;c73.997,1.179,134.967-56.084,138.216-130.019c1.845-42.014-15.469-80.127-43.936-106.298c-3.021-2.777-7.897-0.676-7.897,3.427&#x9;&#x9;c0,1.321,0.566,2.57,1.538,3.463C269.407,88.261,285.475,123.197,284.197,161.774"/>
          </g>
    <g>
              <path class="st3" d="M97.53,183.145c-0.864,0-1.563,0.7-1.563,1.563v72.2c0,1.031,0.446,1.944,1.217,2.518&#x9;&#x9;C97.699,259.8,98.321,260,98.988,260c0.351,0,0.727-0.057,1.088-0.175L217.07,222.99c1.802-0.574,3.173-2.389,3.173-4.227v-31.061&#x9;&#x9;c0-1.031-0.445-1.955-1.217-2.518c-0.795-0.586-1.85-0.727-2.894-0.398l-77.39,24.364c-0.002-0.002-0.002-0.002-0.003-0.003v-4.599&#x9;&#x9;c0-1.053-1.023-1.802-2.027-1.485c-0.649,0.204-1.088,0.806-1.088,1.485v4.658c0,1.031,0.432,1.944,1.206,2.506&#x9;&#x9;c0.797,0.586,1.85,0.727,2.892,0.398l77.348-24.349c0.019,0.013,0.027,0.019,0.046,0.033v30.968c0,0.421-0.433,1.077-0.985,1.241&#x9;&#x9;L99.097,256.862c-0.002,0-0.002,0-0.003-0.002v-72.152C99.093,183.845,98.394,183.145,97.53,183.145 M219.026,53.246&#x9;&#x9;c-0.795-0.586-1.85-0.727-2.894-0.398L99.14,89.681c-1.802,0.574-3.173,2.39-3.173,4.229v69.161c0,0.862,0.7,1.563,1.563,1.563&#x9;&#x9;c0.864,0,1.563-0.701,1.563-1.563V93.91c0-0.433,0.435-1.079,0.983-1.254l117.039-36.848c0.002,0.002,0.002,0.002,0.002,0.003&#x9;&#x9;v31.013c0,0.422-0.433,1.077-0.985,1.241l-77.347,24.362c-1.802,0.561-3.161,2.377-3.161,4.216v2.632&#x9;&#x9;c0,0.86,0.696,1.558,1.558,1.558c0.86,0,1.557-0.698,1.557-1.558v-2.632c0-0.422,0.445-1.066,0.983-1.241l77.348-24.351&#x9;&#x9;c1.802-0.574,3.173-2.389,3.173-4.227v-31.06C220.243,54.722,219.799,53.807,219.026,53.246 M220.243,121.732L220.243,121.732&#x9;&#x9;v31.061c0,1.149-0.534,2.288-1.377,3.123c-0.336,0.333-0.722,0.618-1.142,0.833c-0.209,0.108-0.429,0.199-0.655,0.271&#x9;&#x9;l-77.347,24.349c-0.539,0.177-0.983,0.821-0.983,1.243v2.632c0,0.86-0.696,1.558-1.557,1.558c-0.862,0-1.558-0.698-1.558-1.558&#x9;&#x9;v-2.632c0-1.84,1.359-3.655,3.161-4.216l77.347-24.362c0.551-0.164,0.985-0.819,0.985-1.241v-30.968&#x9;&#x9;c-0.019-0.014-0.027-0.019-0.048-0.033l-77.347,24.349c-1.042,0.328-2.095,0.188-2.892-0.398c-0.774-0.562-1.206-1.476-1.206-2.506&#x9;&#x9;v-4.658c0-0.68,0.44-1.281,1.088-1.485c1.004-0.317,2.027,0.432,2.027,1.485v4.599c0.002,0.002,0.002,0.002,0.003,0.003&#x9;&#x9;l70.106-22.071l7.284-2.293c0.523-0.164,1.047-0.212,1.539-0.143c0.494,0.067,0.958,0.249,1.354,0.542&#x9;&#x9;C219.799,119.775,220.243,120.689,220.243,121.732 M157.467,24.552L157.467,24.552c0.725,0,1.464,0.006,2.193,0.018&#x9;&#x9;c8.866,0.142,17.705,1.166,26.272,3.047c0.707,0.155,1.2,0.762,1.2,1.474c0,0.919-0.779,1.488-1.503,1.488&#x9;&#x9;c-0.115,0-0.233-0.014-0.349-0.04c-9.071-1.984-18.418-2.991-27.778-2.991c-0.888,0-1.778,0.01-2.671,0.027&#x9;&#x9;C85.782,28.969,29.9,84.115,27.617,153.122c-1.256,37.889,14.059,74.349,42.016,100.034c0.322,0.296,0.507,0.703,0.507,1.117&#x9;&#x9;c0,1.095-0.937,1.503-1.528,1.503c-0.374,0-0.72-0.142-1.023-0.422C38.59,228.698,22.952,190.858,24.68,151.542&#x9;&#x9;C27.808,80.326,86.134,24.547,157.467,24.552 M157.532,290.45L157.532,290.45c-0.727,0-1.464-0.006-2.193-0.018&#x9;&#x9;c-8.866-0.142-17.706-1.166-26.272-3.045c-0.709-0.156-1.201-0.762-1.201-1.476c0-0.919,0.781-1.488,1.504-1.488&#x9;&#x9;c0.113,0,0.233,0.014,0.349,0.04c9.07,1.984,18.417,2.991,27.778,2.991c0.886,0,1.778-0.01,2.669-0.027&#x9;&#x9;c69.051-1.394,124.933-56.541,127.216-125.548c1.254-37.889-14.06-74.349-42.017-100.034c-0.322-0.296-0.507-0.703-0.507-1.115&#x9;&#x9;c0-1.095,0.939-1.504,1.528-1.504c0.376,0,0.722,0.143,1.025,0.422c28.997,26.658,44.637,64.496,42.909,103.812&#x9;&#x9;C287.191,234.675,228.864,290.455,157.532,290.45"/>
          </g>
  </svg>